<?xml version="1.0" standalone="no"?>
<!DOCTYPE svg PUBLIC "-//W3C//DTD SVG 20010904//EN"
 "http://www.w3.org/TR/2001/REC-SVG-20010904/DTD/svg10.dtd">
<svg version="1.0" xmlns="http://www.w3.org/2000/svg"
 width="334.000000pt" height="334.000000pt" viewBox="0 0 334.000000 334.000000"
 preserveAspectRatio="xMidYMid meet">
<metadata>
Created by potrace 1.14, written by Peter Selinger 2001-2017
</metadata>
<g transform="translate(0.000000,334.000000) scale(0.100000,-0.100000)"
fill="#000000" stroke="none">
<path d="M1355 3324 c-99 -22 -204 -75 -275 -140 -151 -140 -327 -496 -379
-767 -140 -724 119 -1656 592 -2129 384 -384 826 -379 1096 12 66 95 169 301
205 410 78 233 107 493 87 775 -6 94 -16 197 -21 230 -16 101 10 95 -401 95
-351 0 -358 0 -372 -21 -10 -13 -13 -34 -10 -60 5 -36 4 -39 -19 -39 -41 0
-51 -22 -43 -87 7 -58 7 -58 -13 -40 -29 27 -87 141 -111 221 -36 119 -22 136
34 40 20 -34 32 -44 51 -44 39 0 670 239 690 261 12 13 15 28 11 53 -5 30 -2
36 22 46 43 18 54 51 35 108 -119 350 -355 719 -575 896 -147 118 -345 198
-486 195 -26 0 -79 -7 -118 -15z m255 -86 c258 -61 541 -350 731 -743 37 -77
79 -172 93 -212 23 -65 24 -72 8 -78 -54 -21 -573 -215 -576 -215 -2 0 -21 23
-42 51 -43 56 -107 99 -148 99 -98 0 -126 -194 -57 -400 54 -161 134 -274 214
-305 96 -36 141 29 135 196 l-3 99 306 0 306 0 6 -45 c18 -127 28 -333 22
-440 -30 -552 -223 -924 -528 -1017 -95 -29 -232 -22 -332 16 -244 93 -495
362 -664 710 -395 812 -350 1857 95 2194 133 101 269 129 434 90z"/>
</g>
</svg>
